<svg width="110" height="61" viewBox="0 0 706 384" xmlns="http://www.w3.org/2000/svg">
  <g fill-rule="nonzero" fill="none">
    <g fill="#DE5D11">
      <path d="M317.158 65.68c-2.676-6.802-6.115-10.913-10.224-16.816L198.194 22.52c-3.305-4.91-8.917-8.145-15.28-8.145-10.164 0-18.408 8.24-18.408 18.408 0 10.167 8.244 18.41 18.408 18.41 4.295 0 8.236-1.482 11.367-3.948L317.16 65.68zM323.678 101.978L213.41 99.69c-2.752-2.446-6.368-3.948-10.343-3.948-8.607 0-15.586 6.98-15.586 15.587 0 8.605 6.98 15.58 15.587 15.58 5.19 0 9.77-2.543 12.606-6.442l106.973-6.215c.687-4.595 1.032-12.275 1.032-12.275zM446.29 99.69c-.13-5.2-.94-10.227-2.37-15.002l52.404 8.095c-.277-1.783-1.362-1.197-1.904-2.87l-53.804-13.76c-9.316-19.27-29.062-32.595-51.868-32.595-9.058 0-17.75 2.057-25.823 6.115l.92 2.09C369.63 49.58 375.7 48.47 381.9 48.47c28.607 0 51.875 23.75 51.875 52.946 0 29.192-23.268 52.95-51.874 52.95-4.618 0-9.22-.637-13.69-1.877l-.728 2.16c6.79 2.704 13.945 4.072 21.267 4.072 23.033 0 42.94-13.596 52.145-33.176l53.143-13.113c1.21-1.536-1.695-.174-.764-1.923l-49.643 8.048c1.17-3.68 1.986-7.518 2.392-11.48l52.137-4.475c.466-1.69.488 1.156.687-.627L446.29 99.69z"/>
      <path d="M701.85 193.695C684.83 118.455 597.14 71.01 489.54 70.36c1.89 1.895 3.563 4.008 5 6.283-6.553-9.812-17.735-16.288-30.394-16.288-5.75 0-11.26 1.303-16.382 3.874l.916 2.097c3.578-1.356 7.337-2.045 11.177-2.045 17.697 0 32.09 14.705 32.09 32.774 0 18.07-14.393 32.773-32.09 32.773-2.862 0-5.71-.394-8.48-1.166l-.726 2.17c4.31 1.713 8.853 2.583 13.493 2.583 10.457 0 19.89-4.42 26.556-11.482 99.373 4.7 175.122 41.772 185.748 111.188 7.494 48.957-16.12 84.574-56.01 125.18 69.025-47.497 95.55-102.027 81.41-164.608zM426.307 108.228c.274-2.235.437-2.213.437-4.522 0-.58-.022-1.153-.038-1.728l-75.86-2.287c0-10.322-1.58-20.274-4.517-29.638l76.614 11.492c-1.5-3.75-3.4-5-5.657-8.264l-77.715-19.477C322.984 22.135 289.797.48 251.642.48c-15.607 0-30.57 3.543-44.483 10.534l.916 2.095c10.138-3.84 20.786-5.786 31.664-5.786 50.168 0 90.98 41.65 90.98 92.843 0 51.192-40.813 92.843-90.98 92.843-8.096 0-16.172-1.113-24.01-3.295l-.732 2.166c11.704 4.658 24.03 7.018 36.644 7.018 35.77 0 67.175-19.028 84.628-47.498l81.407-20.12c1.836-2.73 3.416-3.35 4.73-6.417l-79.067 12.67c3.25-7.84 5.52-16.18 6.66-24.87l76.307-4.435z"/>
      <path d="M313.282 145.505l-144.66 25.08c-2.36-1.43-5.122-2.27-8.082-2.27-8.63 0-15.633 6.996-15.633 15.627 0 8.634 7.002 15.635 15.633 15.635 5.91 0 11.05-3.285 13.708-8.123l128.138-31.68c4.19-5.084 7.838-8.343 10.896-14.27z"/>
    </g>
    <g fill="#2B2E6D">
      <path d="M2.035 325.153v-96.885H55.48c10.676 0 18.792 2.355 24.35 7.074 5.558 4.72 8.337 11.166 8.337 19.332 0 4.186-1.258 7.904-3.762 11.164-2.502 3.258-5.663 5.57-9.477 6.932 2.288.78 4.435 1.777 6.454 2.99 2.018 1.217 3.762 2.773 5.23 4.668 1.47 1.895 2.645 4.137 3.516 6.715.87 2.576 1.308 5.615 1.308 9.12 0 8.85-3.326 15.88-9.97 21.08-6.647 5.206-16.833 7.81-30.562 7.81H2.034zm21.9-80.107v21.012h28.6c9.153 0 13.73-3.5 13.73-10.504 0-3.697-1.173-6.37-3.515-8.027-2.342-1.654-6.184-2.48-11.52-2.48H23.933zM52.7 308.66c5.23 0 9.316-1.312 12.257-3.935 2.942-2.63 4.414-5.93 4.414-9.924 0-4.276-1.445-7.394-4.33-9.335-2.888-1.945-6.893-2.924-12.014-2.924H23.934v26.12H52.7zM167.592 228.27h23.21v64.636c0 11.77-3.868 20.646-11.604 26.63-7.736 5.983-18.742 8.972-33.014 8.972-13.186 0-23.618-2.82-31.296-8.46-7.683-5.642-11.525-14.3-11.525-25.976V228.27h23.045v63.91c0 6.03 1.69 10.794 5.07 14.294 3.373 3.504 8.17 5.256 14.377 5.256 14.49 0 21.737-6.275 21.737-18.824V228.27zM302.103 291.884c-1.2 5.545-3.107 10.553-5.72 15.03-2.616 4.472-5.915 8.315-9.89 11.528-3.98 3.207-8.58 5.688-13.81 7.438-5.23 1.752-11.004 2.627-17.327 2.627-7.082 0-13.7-1.072-19.853-3.207-6.16-2.143-11.473-5.352-15.938-9.63-4.468-4.284-7.98-9.558-10.542-15.835-2.562-6.27-3.838-13.594-3.838-21.96 0-8.17 1.17-15.54 3.513-22.106 2.344-6.565 5.69-12.11 10.05-16.634 4.356-4.52 9.67-7.997 15.94-10.435 6.26-2.424 13.26-3.643 20.998-3.643 6.754 0 12.885.897 18.386 2.702 5.503 1.795 10.244 4.28 14.218 7.436 3.976 3.16 7.136 6.885 9.48 11.166 2.342 4.28 3.784 8.852 4.334 13.713h-22.72c-1.528-5.54-4.467-9.85-8.825-12.91-4.358-3.066-9.263-4.6-14.71-4.6-9.48 0-16.455 3.04-20.918 9.12-4.473 6.08-6.705 14.42-6.705 25.022 0 10.8 2.208 19.19 6.62 25.172 4.415 5.98 11.03 8.97 19.86 8.97 6.75 0 12.175-1.63 16.26-4.885 4.087-3.26 6.89-7.955 8.418-14.082h22.718zM377.28 325.153v-24.95c0-4.673-1.2-8-3.59-9.997-2.4-1.994-6.866-2.992-13.41-2.992h-24.187v37.94H314.03v-96.886h55.082c5.005 0 9.553.703 13.643 2.113 4.092 1.415 7.6 3.36 10.544 5.835 2.94 2.484 5.204 5.45 6.787 8.902 1.574 3.457 2.36 7.174 2.36 11.16 0 5.252-1.38 9.9-4.165 13.938-2.776 4.035-6.782 6.885-12.01 8.54 4.792 1.36 8.195 3.45 10.212 6.27 2.02 2.82 3.03 7.053 3.03 12.695v27.432H377.28zm-41.187-80.107v25.826h28.438c6.104 0 10.405-1.215 12.914-3.65 2.506-2.424 3.762-5.49 3.762-9.188 0-3.797-1.225-6.91-3.678-9.342-2.453-2.428-6.515-3.646-12.178-3.646h-29.257zM415.85 325.153v-96.885h79.755v16.924H437.92v20.72h53.115v17.07H437.92v24.952h60.306v17.22H415.85M539.736 325.153v-79.96H507.05v-16.925h88.254v16.924h-32.846v79.96"/>
    </g>
    <g fill="#2B2E6D">
      <path d="M.473 383.202h4.412v-12.738h11.523v-4.227H4.885v-8.506h11.523v-4.225H.473M48.48 353.505h4.415v29.697H48.48zM100.305 365.003c-.76-.746-1.563-1.342-2.4-1.78.826-1.038 1.242-2.167 1.242-3.355 0-1.78-.71-3.316-2.11-4.557-1.353-1.198-2.997-1.806-4.876-1.806h-6.72V383.2h7.21l1.355-.02v-.085c2.386-.287 4.5-1.266 6.292-2.924 2.294-2.126 3.46-4.69 3.46-7.618 0-2.94-1.162-5.483-3.452-7.55zm-7.483 13.97h-2.97v-12.72h2.178c2.042 0 3.73.617 5.16 1.896 1.384 1.233 2.057 2.677 2.057 4.403 0 1.73-.673 3.2-2.08 4.482-1.233 1.157-2.66 1.79-4.345 1.937zm1.33-17.687c-.44.363-.97.574-1.618.633H89.85v-4.19h2.31c.81 0 1.453.218 1.972.66.467.403.68.858.68 1.478 0 .602-.206 1.04-.66 1.418zM150.855 370.915c2.225-1.98 3.35-4.42 3.35-7.254 0-2.82-1.125-5.253-3.35-7.23-1.81-1.622-4.037-2.6-6.613-2.92l-9.452-.005v29.697h4.41v-9.363h3.613l6.73 9.362h5.452l-7.423-10.225c1.193-.486 2.29-1.177 3.283-2.062zM139.2 357.75h3.782c1.918 0 3.51.583 4.854 1.782 1.303 1.156 1.934 2.506 1.934 4.13 0 1.628-.634 2.98-1.934 4.145-1.35 1.203-2.936 1.79-4.854 1.79h-3.78v-11.848zM182.027 383.202h4.74l4.214-10.342h8.644l4.21 10.342h4.722l-13.254-32.557-13.275 32.557zm10.683-14.568l2.592-6.367 2.595 6.367h-5.187zM290.338 366.75l-8.56-13.245h-5.17l11.525 17.83v11.867h4.41v-11.867l11.547-17.83h-5.174M391.89 370.915c2.22-1.98 3.342-4.42 3.342-7.254 0-2.82-1.122-5.253-3.342-7.23-1.816-1.622-4.042-2.6-6.62-2.92l-9.447-.005v29.697h4.41v-9.363h3.61l6.735 9.362h5.448l-7.422-10.225c1.192-.486 2.294-1.177 3.286-2.062zm-11.658-13.166h3.784c1.91 0 3.5.583 4.847 1.782 1.31 1.156 1.942 2.506 1.942 4.13 0 1.628-.633 2.98-1.942 4.145-1.347 1.203-2.936 1.79-4.847 1.79h-3.784v-11.848zM425.603 383.202h17.828v-4.23h-13.414v-8.508h13.415v-4.227h-13.414v-8.506h13.415v-4.225h-17.827M490.782 357.56c-2.746-2.463-6.52-3.803-11.245-4v-.055h-4.41v29.697h3.057l1.354-.037v-.023c4.725-.195 8.5-1.54 11.245-3.998 3.31-2.95 4.984-6.582 4.984-10.79 0-4.203-1.674-7.828-4.985-10.794zm-3.045 18.47c-1.917 1.723-4.67 2.68-8.2 2.86v-21.06c3.53.174 6.283 1.13 8.2 2.842 2.41 2.156 3.578 4.67 3.578 7.68 0 3.018-1.17 5.534-3.578 7.678zM526.994 383.202h17.82v-4.23h-13.41v-8.508h13.41v-4.227h-13.41v-8.506h13.41v-4.225h-17.82M592.05 367.51c-1.783-1.59-3.983-2.772-6.552-3.52-1.337-.567-2.378-1.177-3.104-1.81-.636-.566-.926-1.19-.926-1.957 0-.78.29-1.408.926-1.967.664-.592 1.46-.88 2.422-.88.963 0 1.76.284 2.425.87.36.322.62.664.765 1.02l.49 1.195 4.03-1.42-.46-1.282c-.345-.96-.962-1.826-1.813-2.564-1.512-1.334-3.34-2.012-5.436-2.012-2.116 0-3.942.68-5.442 2.027-1.536 1.38-2.315 3.062-2.315 5.013 0 1.98.778 3.686 2.324 5.057 1.375 1.234 3.254 2.213 5.573 2.904 1.627.602 3.01 1.406 4.11 2.395 1.142 1.01 1.69 2.177 1.69 3.57 0 1.41-.55 2.59-1.69 3.593-1.178 1.057-2.567 1.566-4.25 1.566-1.675 0-3.06-.51-4.233-1.567-.98-.865-1.52-1.844-1.652-2.977l-.2-1.635-4.278 1.397.184 1.148c.327 1.95 1.32 3.686 2.948 5.135 1.995 1.8 4.427 2.71 7.23 2.71 2.8 0 5.23-.905 7.235-2.69 2.043-1.823 3.08-4.07 3.08-6.683 0-2.59-1.038-4.832-3.08-6.638z"/>
    </g>
  </g>
</svg>
