<?xml version="1.0" encoding="utf-8"?>
<!-- Generator: Adobe Illustrator 16.0.0, SVG Export Plug-In . SVG Version: 6.00 Build 0)  -->
<!DOCTYPE svg PUBLIC "-//W3C//DTD SVG 1.1//EN" "http://www.w3.org/Graphics/SVG/1.1/DTD/svg11.dtd">
<svg version="1.1" id="Capa_1" xmlns="http://www.w3.org/2000/svg" xmlns:xlink="http://www.w3.org/1999/xlink" x="0px" y="0px"
	 width="242px" height="112px" viewBox="0 0 792 612" enable-background="new 0 0 792 612" xml:space="preserve">
<g>
	<g>
		<path fill="#DE5D11" d="M360.158,179.679c-2.676-6.801-6.115-10.912-10.224-16.815l-108.74-26.344
			c-3.305-4.909-8.917-8.145-15.28-8.145c-10.164,0-18.408,8.241-18.408,18.408s8.244,18.411,18.408,18.411
			c4.295,0,8.236-1.483,11.367-3.949L360.158,179.679z"/>
		<path fill="#DE5D11" d="M366.678,215.978l-110.268-2.287c-2.752-2.447-6.368-3.949-10.343-3.949
			c-8.607,0-15.586,6.979-15.586,15.587c0,8.606,6.979,15.582,15.586,15.582c5.191,0,9.77-2.544,12.606-6.443l106.973-6.215
			C366.333,223.658,366.678,215.978,366.678,215.978z"/>
		<path fill="#DE5D11" d="M489.289,213.69c-0.128-5.199-0.938-10.227-2.369-15.002l52.404,8.095
			c-0.277-1.783-1.362-1.197-1.904-2.871l-53.804-13.758c-9.316-19.271-29.062-32.596-51.868-32.596
			c-9.058,0-17.751,2.057-25.823,6.115l0.92,2.091c5.784-2.185,11.856-3.294,18.056-3.294c28.606,0,51.874,23.75,51.874,52.946
			c0,29.192-23.268,52.949-51.874,52.949c-4.619,0-9.22-0.636-13.692-1.876l-0.727,2.16c6.789,2.705,13.945,4.073,21.267,4.073
			c23.034,0,42.941-13.596,52.146-33.176l53.143-13.113c1.21-1.536-1.695-0.174-0.764-1.923l-49.643,8.048
			c1.169-3.681,1.985-7.518,2.391-11.479l52.137-4.476c0.467-1.689,0.489,1.156,0.688-0.627L489.289,213.69z"/>
		<path fill="#DE5D11" d="M744.849,307.695C727.83,232.454,640.14,185.009,532.542,184.36c1.889,1.895,3.563,4.008,4.999,6.283
			c-6.552-9.812-17.734-16.288-30.393-16.288c-5.75,0-11.261,1.303-16.382,3.874l0.916,2.098c3.578-1.356,7.337-2.045,11.177-2.045
			c17.698,0,32.092,14.705,32.092,32.774c0,18.071-14.394,32.773-32.092,32.773c-2.861,0-5.71-0.393-8.478-1.165l-0.727,2.169
			c4.311,1.714,8.853,2.584,13.493,2.584c10.457,0,19.889-4.42,26.556-11.482c99.373,4.7,175.122,41.772,185.748,111.188
			c7.493,48.957-16.121,84.574-56.011,125.18C732.465,424.806,758.989,370.276,744.849,307.695z"/>
		<path fill="#DE5D11" d="M469.307,222.228c0.274-2.235,0.437-2.213,0.437-4.522c0-0.58-0.022-1.153-0.038-1.728l-75.859-2.287
			c0-10.323-1.582-20.275-4.518-29.639l76.615,11.492c-1.499-3.75-3.4-5-5.657-8.264l-77.715-19.477
			c-16.588-31.668-49.775-53.324-87.931-53.324c-15.606,0-30.57,3.544-44.482,10.535l0.917,2.095
			c10.138-3.84,20.786-5.785,31.664-5.785c50.168,0,90.98,41.651,90.98,92.843s-40.813,92.843-90.98,92.843
			c-8.096,0-16.172-1.113-24.011-3.295l-0.731,2.166c11.704,4.657,24.031,7.017,36.644,7.017c35.77,0,67.175-19.028,84.628-47.498
			l81.407-20.12c1.836-2.73,3.416-3.351,4.731-6.417l-79.068,12.67c3.25-7.839,5.52-16.18,6.659-24.87L469.307,222.228z"/>
		<path fill="#DE5D11" d="M356.282,259.505l-144.661,25.079c-2.358-1.428-5.121-2.27-8.081-2.27c-8.63,0-15.633,6.997-15.633,15.628
			c0,8.634,7.002,15.635,15.633,15.635c5.91,0,11.051-3.285,13.708-8.123l128.138-31.68
			C349.576,268.69,353.224,265.431,356.282,259.505z"/>
	</g>
	<g>
		<path fill="#2B2E6D" d="M45.035,439.153v-96.885h53.444c10.677,0,18.793,2.355,24.352,7.074
			c5.557,4.719,8.336,11.166,8.336,19.332c0,4.186-1.258,7.904-3.762,11.164c-2.502,3.258-5.663,5.57-9.477,6.932
			c2.288,0.779,4.435,1.777,6.454,2.99c2.018,1.217,3.762,2.773,5.23,4.668c1.471,1.895,2.645,4.137,3.516,6.715
			c0.871,2.576,1.308,5.615,1.308,9.119c0,8.852-3.326,15.881-9.969,21.082c-6.648,5.205-16.834,7.809-30.563,7.809H45.035z
			 M66.934,359.046v21.012h28.6c9.154,0,13.73-3.5,13.73-10.504c0-3.697-1.172-6.371-3.514-8.027
			c-2.342-1.654-6.184-2.48-11.521-2.48H66.934z M95.7,422.661c5.23,0,9.316-1.313,12.257-3.936c2.942-2.629,4.414-5.93,4.414-9.924
			c0-4.277-1.446-7.395-4.331-9.336c-2.888-1.945-6.893-2.924-12.014-2.924H66.934v26.119H95.7z"/>
		<path fill="#2B2E6D" d="M210.592,342.269h23.21v64.637c0,11.77-3.868,20.646-11.604,26.631
			c-7.736,5.982-18.742,8.971-33.014,8.971c-13.186,0-23.618-2.82-31.296-8.459c-7.683-5.643-11.525-14.301-11.525-25.977v-65.803
			h23.045v63.91c0,6.031,1.689,10.795,5.069,14.295c3.374,3.504,8.171,5.256,14.378,5.256c14.49,0,21.737-6.275,21.737-18.824
			V342.269z"/>
		<path fill="#2B2E6D" d="M345.103,405.884c-1.2,5.545-3.107,10.553-5.721,15.029c-2.615,4.473-5.914,8.316-9.888,11.529
			c-3.98,3.207-8.582,5.688-13.811,7.438c-5.231,1.752-11.004,2.627-17.327,2.627c-7.082,0-13.699-1.072-19.853-3.207
			c-6.16-2.143-11.473-5.352-15.938-9.631c-4.468-4.283-7.981-9.557-10.542-15.834c-2.562-6.271-3.838-13.594-3.838-21.959
			c0-8.172,1.17-15.541,3.513-22.107c2.344-6.564,5.691-12.109,10.049-16.633c4.357-4.519,9.67-7.997,15.94-10.435
			c6.26-2.425,13.262-3.644,20.999-3.644c6.754,0,12.885,0.897,18.386,2.702c5.503,1.796,10.244,4.28,14.218,7.437
			c3.976,3.161,7.136,6.885,9.48,11.166c2.342,4.279,3.784,8.852,4.334,13.713h-22.719c-1.529-5.541-4.468-9.85-8.826-12.91
			c-4.357-3.066-9.262-4.6-14.708-4.6c-9.48,0-16.456,3.041-20.919,9.119c-4.473,6.082-6.705,14.422-6.705,25.023
			c0,10.799,2.208,19.189,6.621,25.172c4.414,5.98,11.03,8.971,19.859,8.971c6.751,0,12.175-1.629,16.261-4.885
			c4.086-3.26,6.889-7.955,8.417-14.082H345.103z"/>
		<path fill="#2B2E6D" d="M420.281,439.153v-24.951c0-4.672-1.2-8-3.591-9.996c-2.4-1.994-6.866-2.992-13.409-2.992h-24.188v37.939
			h-22.062v-96.885h55.081c5.005,0,9.553,0.703,13.643,2.113c4.092,1.414,7.599,3.359,10.544,5.834
			c2.942,2.484,5.205,5.451,6.788,8.902c1.574,3.457,2.36,7.174,2.36,11.16c0,5.252-1.381,9.9-4.165,13.938
			c-2.776,4.035-6.782,6.885-12.009,8.539c4.791,1.361,8.194,3.451,10.211,6.271c2.02,2.82,3.029,7.053,3.029,12.695v27.432H420.281
			z M379.093,359.046v25.826h28.438c6.103,0,10.404-1.215,12.913-3.65c2.506-2.424,3.762-5.49,3.762-9.188
			c0-3.797-1.225-6.91-3.678-9.342c-2.453-2.428-6.515-3.646-12.178-3.646H379.093z"/>
		<path fill="#2B2E6D" d="M458.85,439.153v-96.885h79.755v16.924H480.92v20.721h53.115v17.068H480.92v24.953h60.306v17.219H458.85z"
			/>
		<path fill="#2B2E6D" d="M582.736,439.153v-79.961H550.05v-16.924h88.254v16.924h-32.846v79.961H582.736z"/>
	</g>
	<g>
		<polygon fill="#2B2E6D" points="43.473,497.202 47.885,497.202 47.885,484.464 59.408,484.464 59.408,480.237 47.885,480.237 
			47.885,471.731 59.408,471.731 59.408,467.505 43.473,467.505 		"/>
		<rect x="91.481" y="467.505" fill="#2B2E6D" width="4.414" height="29.697"/>
		<path fill="#2B2E6D" d="M143.305,479.003c-0.76-0.746-1.563-1.342-2.4-1.781c0.826-1.037,1.242-2.166,1.242-3.354
			c0-1.781-0.711-3.316-2.11-4.557c-1.353-1.199-2.997-1.807-4.876-1.807h-6.72v29.697h7.209l1.355-0.02v-0.086
			c2.386-0.287,4.5-1.266,6.292-2.924c2.294-2.127,3.46-4.691,3.46-7.619C146.757,483.612,145.595,481.069,143.305,479.003z
			 M135.822,492.972h-2.971v-12.719h2.179c2.042,0,3.731,0.617,5.16,1.896c1.384,1.234,2.057,2.678,2.057,4.404
			c0,1.73-0.673,3.199-2.079,4.482C138.934,492.192,137.508,492.825,135.822,492.972z M137.152,475.286
			c-0.439,0.363-0.971,0.574-1.618,0.633h-2.684v-4.188h2.31c0.811,0,1.453,0.217,1.972,0.66c0.467,0.402,0.681,0.857,0.681,1.477
			C137.813,474.47,137.606,474.909,137.152,475.286z"/>
		<path fill="#2B2E6D" d="M193.855,484.915c2.225-1.979,3.349-4.42,3.349-7.254c0-2.82-1.124-5.254-3.349-7.232
			c-1.811-1.621-4.037-2.6-6.613-2.918l-9.452-0.006v29.697h4.41v-9.363h3.613l6.731,9.363h5.451l-7.423-10.225
			C191.765,486.491,192.862,485.8,193.855,484.915z M182.201,471.749h3.781c1.918,0,3.51,0.584,4.854,1.783
			c1.303,1.156,1.934,2.506,1.934,4.129c0,1.629-0.634,2.98-1.934,4.146c-1.35,1.203-2.936,1.789-4.854,1.789h-3.781V471.749z"/>
		<path fill="#2B2E6D" d="M225.027,497.202h4.739l4.215-10.342h8.643l4.211,10.342h4.721l-13.254-32.557L225.027,497.202z
			 M235.71,482.634l2.592-6.367l2.595,6.367H235.71z"/>
		<polygon fill="#2B2E6D" points="333.338,480.751 324.779,467.505 319.608,467.505 331.133,485.335 331.133,497.202 
			335.543,497.202 335.543,485.335 347.09,467.505 341.916,467.505 		"/>
		<path fill="#2B2E6D" d="M434.89,484.915c2.22-1.979,3.342-4.42,3.342-7.254c0-2.82-1.122-5.254-3.342-7.232
			c-1.816-1.621-4.042-2.6-6.62-2.918l-9.447-0.006v29.697h4.41v-9.363h3.609l6.736,9.363h5.448l-7.422-10.225
			C432.796,486.491,433.898,485.8,434.89,484.915z M423.232,471.749h3.784c1.911,0,3.5,0.584,4.847,1.783
			c1.31,1.156,1.942,2.506,1.942,4.129c0,1.629-0.633,2.98-1.942,4.146c-1.347,1.203-2.936,1.789-4.847,1.789h-3.784V471.749z"/>
		<polygon fill="#2B2E6D" points="468.603,497.202 486.431,497.202 486.431,492.972 473.016,492.972 473.016,484.464 
			486.431,484.464 486.431,480.237 473.016,480.237 473.016,471.731 486.431,471.731 486.431,467.505 468.603,467.505 		"/>
		<path fill="#2B2E6D" d="M533.782,471.56c-2.746-2.463-6.521-3.803-11.245-4v-0.055h-4.411v29.697h3.058l1.354-0.037v-0.023
			c4.725-0.195,8.499-1.539,11.245-3.998c3.311-2.951,4.984-6.582,4.984-10.791C538.767,478.151,537.093,474.526,533.782,471.56z
			 M530.737,490.03c-1.917,1.723-4.669,2.68-8.2,2.861v-21.061c3.531,0.174,6.283,1.131,8.2,2.842
			c2.409,2.156,3.578,4.67,3.578,7.68C534.315,485.37,533.146,487.886,530.737,490.03z"/>
		<polygon fill="#2B2E6D" points="569.994,497.202 587.813,497.202 587.813,492.972 574.404,492.972 574.404,484.464 
			587.813,484.464 587.813,480.237 574.404,480.237 574.404,471.731 587.813,471.731 587.813,467.505 569.994,467.505 		"/>
		<path fill="#2B2E6D" d="M635.05,481.509c-1.783-1.588-3.983-2.771-6.552-3.52c-1.337-0.566-2.378-1.176-3.104-1.809
			c-0.636-0.566-0.926-1.189-0.926-1.957c0-0.779,0.29-1.408,0.926-1.967c0.664-0.592,1.459-0.881,2.422-0.881
			s1.761,0.285,2.425,0.871c0.358,0.322,0.62,0.664,0.764,1.02l0.489,1.195l4.03-1.42l-0.458-1.283
			c-0.346-0.961-0.963-1.826-1.814-2.564c-1.512-1.334-3.341-2.012-5.436-2.012c-2.116,0-3.942,0.68-5.442,2.027
			c-1.536,1.381-2.315,3.063-2.315,5.014c0,1.98,0.779,3.686,2.325,5.057c1.375,1.234,3.254,2.213,5.573,2.904
			c1.627,0.602,3.011,1.406,4.111,2.395c1.141,1.01,1.689,2.178,1.689,3.57c0,1.412-0.549,2.592-1.689,3.594
			c-1.179,1.057-2.568,1.566-4.252,1.566c-1.674,0-3.058-0.51-4.232-1.566c-0.979-0.865-1.521-1.844-1.652-2.977l-0.199-1.635
			l-4.279,1.396l0.184,1.148c0.327,1.951,1.321,3.686,2.948,5.135c1.995,1.799,4.427,2.709,7.231,2.709
			c2.799,0,5.23-0.904,7.234-2.688c2.042-1.824,3.079-4.07,3.079-6.684C638.129,485.558,637.092,483.315,635.05,481.509z"/>
	</g>
</g>
</svg>
